# xmcd
# 
# Track frame offsets:
#     150
#     24630
#     49137
# 
# Disc length: 979
# 
# Revision: 4
# Processed by: cddbd v1.5.2PL0 Copyright (c) Steve Scherf et al.
# Submitted via: fre:ac v1.0.17
# 
DISCID=1f03d103
DTITLE=YOU - 二回目のキス
DYEAR=19940617
DGENRE=JPop
TTITLE0=Deuxiemes bisoux ～二回目のキス～
TTITLE1=A Bientot
TTITLE2=Deuxiemes bisoux ～二回目のキス～ (KARAOKE)
EXTD=YEAR: 19940617
EXTT0=
EXTT1=
EXTT2=
PLAYORDER=
